<?xml version="1.0" encoding="UTF-8"?>
<svg width="366px" height="131px" viewBox="0 0 366 131" version="1.1" xmlns="http://www.w3.org/2000/svg" xmlns:xlink="http://www.w3.org/1999/xlink">
    <!-- Generator: Sketch 61.2 (89653) - https://sketch.com -->
    <title>Group 7</title>
    <desc>Created with Sketch.</desc>
    <g id="Editor-fix" stroke="none" stroke-width="1" fill="none" fill-rule="evenodd">
        <g id="Blocks-empty-1" transform="translate(-386.000000, -493.000000)">
            <g id="Group-7" transform="translate(386.538574, 493.000000)">
                <path d="M2.75488281,128 C3.64811198,127.990885 4.43082682,127.797201 5.10302734,127.418945 C5.77522786,127.04069 6.29248047,126.498372 6.65478516,125.791992 C7.01708984,125.085612 7.19824219,124.263021 7.19824219,123.324219 L7.19824219,123.324219 L7.19824219,122.688477 C7.1936849,121.772461 7.01025391,120.961263 6.64794922,120.254883 C6.28564453,119.548503 5.7718099,119.003906 5.10644531,118.621094 C4.44108073,118.238281 3.67545573,118.046875 2.80957031,118.046875 L2.80957031,118.046875 L0,118.046875 L0,128 L2.75488281,128 Z M2.69335938,126.926758 L1.3125,126.926758 L1.3125,119.126953 L2.84375,119.126953 C3.81901042,119.136068 4.57210286,119.453939 5.10302734,120.080566 C5.63395182,120.707194 5.89941406,121.585612 5.89941406,122.71582 L5.89941406,122.71582 L5.89941406,123.296875 C5.89941406,124.458984 5.6180013,125.354492 5.05517578,125.983398 C4.49235026,126.612305 3.70507812,126.926758 2.69335938,126.926758 L2.69335938,126.926758 Z M10.2470703,128 L10.2470703,122.75 C10.5432943,122.04362 11.1061198,121.69043 11.9355469,121.69043 C12.1588542,121.69043 12.3662109,121.70638 12.5576172,121.738281 L12.5576172,121.738281 L12.5576172,120.5625 C12.430013,120.498698 12.2431641,120.466797 11.9970703,120.466797 C11.2360026,120.466797 10.648112,120.797201 10.2333984,121.458008 L10.2333984,121.458008 L10.2128906,120.603516 L8.98242188,120.603516 L8.98242188,128 L10.2470703,128 Z M16.0029297,128.136719 C16.8186849,128.136719 17.5205078,127.83138 18.1083984,127.220703 C18.1539714,127.594401 18.2132161,127.854167 18.2861328,128 L18.2861328,128 L19.6123047,128 L19.6123047,127.890625 C19.4391276,127.489583 19.3525391,126.949544 19.3525391,126.270508 L19.3525391,126.270508 L19.3525391,122.866211 C19.3343099,122.118815 19.0836589,121.532064 18.6005859,121.105957 C18.117513,120.67985 17.4498698,120.466797 16.5976562,120.466797 C16.0598958,120.466797 15.566569,120.567057 15.1176758,120.767578 C14.6687826,120.968099 14.3133138,121.240397 14.0512695,121.584473 C13.7892253,121.928548 13.6582031,122.285156 13.6582031,122.654297 L13.6582031,122.654297 L14.9296875,122.654297 C14.9296875,122.330729 15.0823568,122.055013 15.3876953,121.827148 C15.6930339,121.599284 16.0712891,121.485352 16.5224609,121.485352 C17.0374349,121.485352 17.4270833,121.616374 17.6914062,121.878418 C17.9557292,122.140462 18.0878906,122.492513 18.0878906,122.93457 L18.0878906,122.93457 L18.0878906,123.515625 L16.8574219,123.515625 C15.7955729,123.515625 14.9718424,123.728678 14.3862305,124.154785 C13.8006185,124.580892 13.5078125,125.179036 13.5078125,125.949219 C13.5078125,126.582682 13.7413737,127.105632 14.2084961,127.518066 C14.6756185,127.930501 15.273763,128.136719 16.0029297,128.136719 Z M16.1875,127.036133 C15.7727865,127.036133 15.4332682,126.924479 15.1689453,126.701172 C14.9046224,126.477865 14.7724609,126.167969 14.7724609,125.771484 C14.7724609,124.864583 15.5472005,124.411133 17.0966797,124.411133 L17.0966797,124.411133 L18.0878906,124.411133 L18.0878906,125.928711 C17.9283854,126.256836 17.6708984,126.523438 17.3154297,126.728516 C16.9599609,126.933594 16.5839844,127.036133 16.1875,127.036133 Z M24.1445312,130.912109 C25.1015625,130.912109 25.8637695,130.636393 26.4311523,130.084961 C26.9985352,129.533529 27.2822266,128.779297 27.2822266,127.822266 L27.2822266,127.822266 L27.2822266,120.603516 L26.1269531,120.603516 L26.0654297,121.423828 C25.5595703,120.785807 24.8554688,120.466797 23.953125,120.466797 C23.0735677,120.466797 22.3671875,120.807454 21.8339844,121.48877 C21.3007812,122.170085 21.0341797,123.08724 21.0341797,124.240234 C21.0341797,125.443359 21.3019206,126.393555 21.8374023,127.09082 C22.3728841,127.788086 23.0735677,128.136719 23.9394531,128.136719 C24.8144531,128.136719 25.5048828,127.845052 26.0107422,127.261719 L26.0107422,127.261719 L26.0107422,127.897461 C26.0107422,128.526367 25.8387044,129.013997 25.4946289,129.360352 C25.1505534,129.706706 24.6708984,129.879883 24.0556641,129.879883 C23.2718099,129.879883 22.608724,129.544922 22.0664062,128.875 L22.0664062,128.875 L21.4101562,129.633789 C21.6790365,130.030273 22.0686849,130.342448 22.5791016,130.570312 C23.0895182,130.798177 23.6113281,130.912109 24.1445312,130.912109 Z M24.2539062,127.063477 C23.6386719,127.063477 23.1601562,126.825358 22.8183594,126.349121 C22.4765625,125.872884 22.3056641,125.217773 22.3056641,124.383789 C22.3056641,123.444987 22.4788411,122.736328 22.8251953,122.257812 C23.1715495,121.779297 23.6523438,121.540039 24.2675781,121.540039 C25.0423177,121.540039 25.6233724,121.893229 26.0107422,122.599609 L26.0107422,122.599609 L26.0107422,125.976562 C25.6370443,126.701172 25.0514323,127.063477 24.2539062,127.063477 Z M34.8154297,128.136719 C35.1298828,128.136719 35.4534505,128.091146 35.7861328,128 L35.7861328,128 L35.7861328,126.974609 C35.5309245,127.029297 35.3304036,127.056641 35.1845703,127.056641 C34.8883464,127.056641 34.6787109,126.982585 34.5556641,126.834473 C34.4326172,126.686361 34.3710938,126.464193 34.3710938,126.167969 L34.3710938,126.167969 L34.3710938,121.581055 L35.7519531,121.581055 L35.7519531,120.603516 L34.3710938,120.603516 L34.3710938,118.8125 L33.1064453,118.8125 L33.1064453,120.603516 L31.7597656,120.603516 L31.7597656,121.581055 L33.1064453,121.581055 L33.1064453,126.167969 C33.1064453,126.796875 33.25,127.282227 33.5371094,127.624023 C33.8242188,127.96582 34.2503255,128.136719 34.8154297,128.136719 Z M38.4931641,128 L38.4931641,122.729492 C38.6663411,122.374023 38.9078776,122.086914 39.2177734,121.868164 C39.5276693,121.649414 39.8876953,121.540039 40.2978516,121.540039 C40.8037109,121.540039 41.1762695,121.667643 41.4155273,121.922852 C41.6547852,122.17806 41.7766927,122.572266 41.78125,123.105469 L41.78125,123.105469 L41.78125,128 L43.0458984,128 L43.0458984,123.112305 C43.0322266,121.348633 42.2438151,120.466797 40.6806641,120.466797 C39.7828776,120.466797 39.0537109,120.810872 38.4931641,121.499023 L38.4931641,121.499023 L38.4931641,117.5 L37.2285156,117.5 L37.2285156,128 L38.4931641,128 Z M48.0087891,128.136719 C49.2483724,128.136719 50.1780599,127.660482 50.7978516,126.708008 L50.7978516,126.708008 L50.0253906,126.106445 C49.7929688,126.407227 49.5218099,126.648763 49.2119141,126.831055 C48.9020182,127.013346 48.523763,127.104492 48.0771484,127.104492 C47.4482422,127.104492 46.9298503,126.880046 46.5219727,126.431152 C46.1140951,125.982259 45.9010417,125.393229 45.8828125,124.664062 L45.8828125,124.664062 L50.8935547,124.664062 L50.8935547,124.137695 C50.8935547,122.957357 50.6269531,122.050456 50.09375,121.416992 C49.5605469,120.783529 48.813151,120.466797 47.8515625,120.466797 C47.2636719,120.466797 46.7179362,120.62972 46.2143555,120.955566 C45.7107747,121.281413 45.3188477,121.732585 45.0385742,122.309082 C44.7583008,122.885579 44.6181641,123.54069 44.6181641,124.274414 L44.6181641,124.274414 L44.6181641,124.506836 C44.6181641,125.609701 44.9326172,126.490397 45.5615234,127.148926 C46.1904297,127.807454 47.0061849,128.136719 48.0087891,128.136719 Z M49.6289062,123.625 L45.9238281,123.625 C46.0058594,122.955078 46.2200521,122.434408 46.5664062,122.062988 C46.9127604,121.691569 47.3411458,121.505859 47.8515625,121.505859 C48.3802083,121.505859 48.7994792,121.682454 49.109375,122.035645 C49.4192708,122.388835 49.5924479,122.886719 49.6289062,123.529297 L49.6289062,123.529297 L49.6289062,123.625 Z M59.2128906,128.136719 C60.0878906,128.136719 60.7851562,127.793783 61.3046875,127.10791 C61.8242188,126.422038 62.0839844,125.513997 62.0839844,124.383789 L62.0839844,124.383789 L62.0839844,124.274414 C62.0839844,123.094076 61.8276367,122.164388 61.3149414,121.485352 C60.8022461,120.806315 60.0970052,120.466797 59.1992188,120.466797 C58.3014323,120.466797 57.5973307,120.783529 57.0869141,121.416992 L57.0869141,121.416992 L57.0869141,117.5 L55.8222656,117.5 L55.8222656,128 L56.984375,128 L57.0458984,127.145508 C57.5563151,127.806315 58.2786458,128.136719 59.2128906,128.136719 Z M58.8984375,127.063477 C58.078125,127.063477 57.4742839,126.676107 57.0869141,125.901367 L57.0869141,125.901367 L57.0869141,122.702148 C57.4514974,121.927409 58.0507812,121.540039 58.8847656,121.540039 C59.5091146,121.540039 59.9876302,121.77474 60.3203125,122.244141 C60.6529948,122.713542 60.8193359,123.378906 60.8193359,124.240234 C60.8193359,125.183594 60.6507161,125.889974 60.3134766,126.359375 C59.976237,126.828776 59.5045573,127.063477 58.8984375,127.063477 Z M65.0507812,128 L65.0507812,117.5 L63.7861328,117.5 L63.7861328,128 L65.0507812,128 Z M70.109375,128.136719 C70.7747396,128.136719 71.3637695,127.977214 71.8764648,127.658203 C72.3891602,127.339193 72.7833659,126.893717 73.059082,126.321777 C73.3347982,125.749837 73.4726562,125.103841 73.4726562,124.383789 L73.4726562,124.383789 L73.4726562,124.294922 C73.4726562,123.13737 73.1616211,122.209961 72.5395508,121.512695 C71.9174805,120.81543 71.1028646,120.466797 70.0957031,120.466797 C69.4440104,120.466797 68.8640951,120.624023 68.355957,120.938477 C67.847819,121.25293 67.4513346,121.699544 67.1665039,122.27832 C66.8816732,122.857096 66.7392578,123.508789 66.7392578,124.233398 L66.7392578,124.233398 L66.7392578,124.322266 C66.7392578,125.470703 67.050293,126.393555 67.6723633,127.09082 C68.2944336,127.788086 69.1067708,128.136719 70.109375,128.136719 Z M70.109375,127.104492 C69.4713542,127.104492 68.9620768,126.85612 68.581543,126.359375 C68.2010091,125.86263 68.0107422,125.204102 68.0107422,124.383789 C68.0107422,123.458659 68.2021484,122.747721 68.5849609,122.250977 C68.9677734,121.754232 69.4713542,121.505859 70.0957031,121.505859 C70.733724,121.505859 71.2452799,121.75765 71.6303711,122.26123 C72.0154622,122.764811 72.2080078,123.422201 72.2080078,124.233398 C72.2080078,125.140299 72.0188802,125.84554 71.640625,126.349121 C71.2623698,126.852702 70.7519531,127.104492 70.109375,127.104492 Z M78.0253906,128.136719 C78.5266927,128.136719 79.0017904,128.022786 79.4506836,127.794922 C79.8995768,127.567057 80.2584635,127.261719 80.5273438,126.878906 C80.796224,126.496094 80.9420573,126.092773 80.9648438,125.668945 L80.9648438,125.668945 L79.7685547,125.668945 C79.7320964,126.079102 79.5452474,126.420898 79.2080078,126.694336 C78.8707682,126.967773 78.4765625,127.104492 78.0253906,127.104492 C77.3736979,127.104492 76.8723958,126.874349 76.5214844,126.414062 C76.1705729,125.953776 75.9951172,125.297526 75.9951172,124.445312 L75.9951172,124.445312 L75.9951172,124.206055 C75.9951172,123.331055 76.1717122,122.662272 76.5249023,122.199707 C76.8780924,121.737142 77.3759766,121.505859 78.0185547,121.505859 C78.4970703,121.505859 78.8992513,121.659668 79.2250977,121.967285 C79.550944,122.274902 79.7320964,122.667969 79.7685547,123.146484 L79.7685547,123.146484 L80.9648438,123.146484 C80.9283854,122.353516 80.6355794,121.708659 80.0864258,121.211914 C79.5372721,120.715169 78.8479818,120.466797 78.0185547,120.466797 C77.3440755,120.466797 76.7596029,120.621745 76.2651367,120.931641 C75.7706706,121.241536 75.391276,121.676758 75.1269531,122.237305 C74.8626302,122.797852 74.7304688,123.438151 74.7304688,124.158203 L74.7304688,124.158203 L74.7304688,124.370117 C74.7304688,125.536784 75.027832,126.456217 75.6225586,127.128418 C76.2172852,127.800618 77.0182292,128.136719 78.0253906,128.136719 Z M83.6582031,128 L83.6582031,125.402344 L84.4511719,124.575195 L87.0283203,128 L88.5117188,128 L85.2988281,123.693359 L88.1767578,120.603516 L86.6386719,120.603516 L84.3349609,123.037109 L83.6582031,123.850586 L83.6582031,117.5 L82.3935547,117.5 L82.3935547,128 L83.6582031,128 Z M93.2763672,130.987305 C94.2789714,130.987305 95.0104167,130.37207 95.4707031,129.141602 L95.4707031,129.141602 L98.4443359,120.603516 L97.0908203,120.603516 L95.3681641,126.147461 L93.5224609,120.603516 L92.1416016,120.603516 L94.7802734,127.917969 L94.5,128.669922 C94.3450521,129.130208 94.1479492,129.44694 93.9086914,129.620117 C93.6694336,129.793294 93.335612,129.879883 92.9072266,129.879883 L92.9072266,129.879883 L92.5654297,129.852539 L92.5654297,130.87793 L93.0371094,130.966797 L93.2763672,130.987305 Z M102.607422,128.136719 C103.272786,128.136719 103.861816,127.977214 104.374512,127.658203 C104.887207,127.339193 105.281413,126.893717 105.557129,126.321777 C105.832845,125.749837 105.970703,125.103841 105.970703,124.383789 L105.970703,124.383789 L105.970703,124.294922 C105.970703,123.13737 105.659668,122.209961 105.037598,121.512695 C104.415527,120.81543 103.600911,120.466797 102.59375,120.466797 C101.942057,120.466797 101.362142,120.624023 100.854004,120.938477 C100.345866,121.25293 99.9493815,121.699544 99.6645508,122.27832 C99.3797201,122.857096 99.2373047,123.508789 99.2373047,124.233398 L99.2373047,124.233398 L99.2373047,124.322266 C99.2373047,125.470703 99.5483398,126.393555 100.17041,127.09082 C100.79248,127.788086 101.604818,128.136719 102.607422,128.136719 Z M102.607422,127.104492 C101.969401,127.104492 101.460124,126.85612 101.07959,126.359375 C100.699056,125.86263 100.508789,125.204102 100.508789,124.383789 C100.508789,123.458659 100.700195,122.747721 101.083008,122.250977 C101.46582,121.754232 101.969401,121.505859 102.59375,121.505859 C103.231771,121.505859 103.743327,121.75765 104.128418,122.26123 C104.513509,122.764811 104.706055,123.422201 104.706055,124.233398 C104.706055,125.140299 104.516927,125.84554 104.138672,126.349121 C103.760417,126.852702 103.25,127.104492 102.607422,127.104492 Z M109.956055,128.136719 C110.908529,128.136719 111.630859,127.847331 112.123047,127.268555 L112.123047,127.268555 L112.150391,128 L113.353516,128 L113.353516,120.603516 L112.088867,120.603516 L112.088867,125.983398 C111.769857,126.703451 111.127279,127.063477 110.161133,127.063477 C109.249674,127.063477 108.793945,126.50293 108.793945,125.381836 L108.793945,125.381836 L108.793945,120.603516 L107.529297,120.603516 L107.529297,125.416016 C107.533854,126.313802 107.74235,126.991699 108.154785,127.449707 C108.56722,127.907715 109.167643,128.136719 109.956055,128.136719 Z M121.249023,128 L122.999023,122.394531 L124.796875,128 L125.822266,128 L127.975586,120.603516 L126.710938,120.603516 L125.289062,126.256836 L123.532227,120.603516 L122.513672,120.603516 L120.791016,126.140625 L119.334961,120.603516 L118.077148,120.603516 L120.223633,128 L121.249023,128 Z M131.543945,128.136719 C132.359701,128.136719 133.061523,127.83138 133.649414,127.220703 C133.694987,127.594401 133.754232,127.854167 133.827148,128 L133.827148,128 L135.15332,128 L135.15332,127.890625 C134.980143,127.489583 134.893555,126.949544 134.893555,126.270508 L134.893555,126.270508 L134.893555,122.866211 C134.875326,122.118815 134.624674,121.532064 134.141602,121.105957 C133.658529,120.67985 132.990885,120.466797 132.138672,120.466797 C131.600911,120.466797 131.107585,120.567057 130.658691,120.767578 C130.209798,120.968099 129.854329,121.240397 129.592285,121.584473 C129.330241,121.928548 129.199219,122.285156 129.199219,122.654297 L129.199219,122.654297 L130.470703,122.654297 C130.470703,122.330729 130.623372,122.055013 130.928711,121.827148 C131.234049,121.599284 131.612305,121.485352 132.063477,121.485352 C132.578451,121.485352 132.968099,121.616374 133.232422,121.878418 C133.496745,122.140462 133.628906,122.492513 133.628906,122.93457 L133.628906,122.93457 L133.628906,123.515625 L132.398438,123.515625 C131.336589,123.515625 130.512858,123.728678 129.927246,124.154785 C129.341634,124.580892 129.048828,125.179036 129.048828,125.949219 C129.048828,126.582682 129.282389,127.105632 129.749512,127.518066 C130.216634,127.930501 130.814779,128.136719 131.543945,128.136719 Z M131.728516,127.036133 C131.313802,127.036133 130.974284,126.924479 130.709961,126.701172 C130.445638,126.477865 130.313477,126.167969 130.313477,125.771484 C130.313477,124.864583 131.088216,124.411133 132.637695,124.411133 L132.637695,124.411133 L133.628906,124.411133 L133.628906,125.928711 C133.469401,126.256836 133.211914,126.523438 132.856445,126.728516 C132.500977,126.933594 132.125,127.036133 131.728516,127.036133 Z M138.140625,128 L138.140625,122.729492 C138.313802,122.374023 138.555339,122.086914 138.865234,121.868164 C139.17513,121.649414 139.535156,121.540039 139.945312,121.540039 C140.451172,121.540039 140.82373,121.667643 141.062988,121.922852 C141.302246,122.17806 141.424154,122.572266 141.428711,123.105469 L141.428711,123.105469 L141.428711,128 L142.693359,128 L142.693359,123.112305 C142.679688,121.348633 141.891276,120.466797 140.328125,120.466797 C139.416667,120.466797 138.678385,120.822266 138.113281,121.533203 L138.113281,121.533203 L138.072266,120.603516 L136.875977,120.603516 L136.875977,128 L138.140625,128 Z M146.760742,128.136719 C147.075195,128.136719 147.398763,128.091146 147.731445,128 L147.731445,128 L147.731445,126.974609 C147.476237,127.029297 147.275716,127.056641 147.129883,127.056641 C146.833659,127.056641 146.624023,126.982585 146.500977,126.834473 C146.37793,126.686361 146.316406,126.464193 146.316406,126.167969 L146.316406,126.167969 L146.316406,121.581055 L147.697266,121.581055 L147.697266,120.603516 L146.316406,120.603516 L146.316406,118.8125 L145.051758,118.8125 L145.051758,120.603516 L143.705078,120.603516 L143.705078,121.581055 L145.051758,121.581055 L145.051758,126.167969 C145.051758,126.796875 145.195312,127.282227 145.482422,127.624023 C145.769531,127.96582 146.195638,128.136719 146.760742,128.136719 Z M154.526367,128 L154.526367,121.581055 L156.105469,121.581055 L156.105469,120.603516 L154.526367,120.603516 L154.526367,119.824219 C154.526367,119.377604 154.638021,119.034668 154.861328,118.79541 C155.084635,118.556152 155.401367,118.436523 155.811523,118.436523 C156.05306,118.436523 156.280924,118.457031 156.495117,118.498047 L156.495117,118.498047 L156.563477,117.472656 C156.276367,117.395182 155.986979,117.356445 155.695312,117.356445 C154.920573,117.356445 154.321289,117.572917 153.897461,118.005859 C153.473633,118.438802 153.261719,119.051758 153.261719,119.844727 L153.261719,119.844727 L153.261719,120.603516 L152.092773,120.603516 L152.092773,121.581055 L153.261719,121.581055 L153.261719,128 L154.526367,128 Z M158.764648,128 L158.764648,122.75 C159.060872,122.04362 159.623698,121.69043 160.453125,121.69043 C160.676432,121.69043 160.883789,121.70638 161.075195,121.738281 L161.075195,121.738281 L161.075195,120.5625 C160.947591,120.498698 160.760742,120.466797 160.514648,120.466797 C159.753581,120.466797 159.16569,120.797201 158.750977,121.458008 L158.750977,121.458008 L158.730469,120.603516 L157.5,120.603516 L157.5,128 L158.764648,128 Z M165.272461,128.136719 C165.937826,128.136719 166.526855,127.977214 167.039551,127.658203 C167.552246,127.339193 167.946452,126.893717 168.222168,126.321777 C168.497884,125.749837 168.635742,125.103841 168.635742,124.383789 L168.635742,124.383789 L168.635742,124.294922 C168.635742,123.13737 168.324707,122.209961 167.702637,121.512695 C167.080566,120.81543 166.265951,120.466797 165.258789,120.466797 C164.607096,120.466797 164.027181,120.624023 163.519043,120.938477 C163.010905,121.25293 162.614421,121.699544 162.32959,122.27832 C162.044759,122.857096 161.902344,123.508789 161.902344,124.233398 L161.902344,124.233398 L161.902344,124.322266 C161.902344,125.470703 162.213379,126.393555 162.835449,127.09082 C163.45752,127.788086 164.269857,128.136719 165.272461,128.136719 Z M165.272461,127.104492 C164.63444,127.104492 164.125163,126.85612 163.744629,126.359375 C163.364095,125.86263 163.173828,125.204102 163.173828,124.383789 C163.173828,123.458659 163.365234,122.747721 163.748047,122.250977 C164.130859,121.754232 164.63444,121.505859 165.258789,121.505859 C165.89681,121.505859 166.408366,121.75765 166.793457,122.26123 C167.178548,122.764811 167.371094,123.422201 167.371094,124.233398 C167.371094,125.140299 167.181966,125.84554 166.803711,126.349121 C166.425456,126.852702 165.915039,127.104492 165.272461,127.104492 Z M171.479492,128 L171.479492,122.599609 C171.784831,121.893229 172.352214,121.540039 173.181641,121.540039 C174.234375,121.540039 174.760742,122.077799 174.760742,123.15332 L174.760742,123.15332 L174.760742,128 L176.032227,128 L176.032227,123.091797 C176.082357,122.617839 176.26237,122.240723 176.572266,121.960449 C176.882161,121.680176 177.27181,121.540039 177.741211,121.540039 C178.310872,121.540039 178.716471,121.671061 178.958008,121.933105 C179.199544,122.19515 179.320312,122.590495 179.320312,123.119141 L179.320312,123.119141 L179.320312,128 L180.584961,128 L180.584961,123.043945 C180.557617,121.325846 179.732747,120.466797 178.110352,120.466797 C177.572591,120.466797 177.106608,120.576172 176.712402,120.794922 C176.318197,121.013672 175.998047,121.300781 175.751953,121.65625 C175.378255,120.863281 174.674154,120.466797 173.639648,120.466797 C172.719076,120.466797 171.98763,120.785807 171.445312,121.423828 L171.445312,121.423828 L171.411133,120.603516 L170.214844,120.603516 L170.214844,128 L171.479492,128 Z M188.118164,128.136719 C188.432617,128.136719 188.756185,128.091146 189.088867,128 L189.088867,128 L189.088867,126.974609 C188.833659,127.029297 188.633138,127.056641 188.487305,127.056641 C188.191081,127.056641 187.981445,126.982585 187.858398,126.834473 C187.735352,126.686361 187.673828,126.464193 187.673828,126.167969 L187.673828,126.167969 L187.673828,121.581055 L189.054688,121.581055 L189.054688,120.603516 L187.673828,120.603516 L187.673828,118.8125 L186.40918,118.8125 L186.40918,120.603516 L185.0625,120.603516 L185.0625,121.581055 L186.40918,121.581055 L186.40918,126.167969 C186.40918,126.796875 186.552734,127.282227 186.839844,127.624023 C187.126953,127.96582 187.55306,128.136719 188.118164,128.136719 Z M191.795898,128 L191.795898,122.729492 C191.969076,122.374023 192.210612,122.086914 192.520508,121.868164 C192.830404,121.649414 193.19043,121.540039 193.600586,121.540039 C194.106445,121.540039 194.479004,121.667643 194.718262,121.922852 C194.95752,122.17806 195.079427,122.572266 195.083984,123.105469 L195.083984,123.105469 L195.083984,128 L196.348633,128 L196.348633,123.112305 C196.334961,121.348633 195.546549,120.466797 193.983398,120.466797 C193.085612,120.466797 192.356445,120.810872 191.795898,121.499023 L191.795898,121.499023 L191.795898,117.5 L190.53125,117.5 L190.53125,128 L191.795898,128 Z M201.311523,128.136719 C202.551107,128.136719 203.480794,127.660482 204.100586,126.708008 L204.100586,126.708008 L203.328125,126.106445 C203.095703,126.407227 202.824544,126.648763 202.514648,126.831055 C202.204753,127.013346 201.826497,127.104492 201.379883,127.104492 C200.750977,127.104492 200.232585,126.880046 199.824707,126.431152 C199.416829,125.982259 199.203776,125.393229 199.185547,124.664062 L199.185547,124.664062 L204.196289,124.664062 L204.196289,124.137695 C204.196289,122.957357 203.929688,122.050456 203.396484,121.416992 C202.863281,120.783529 202.115885,120.466797 201.154297,120.466797 C200.566406,120.466797 200.020671,120.62972 199.51709,120.955566 C199.013509,121.281413 198.621582,121.732585 198.341309,122.309082 C198.061035,122.885579 197.920898,123.54069 197.920898,124.274414 L197.920898,124.274414 L197.920898,124.506836 C197.920898,125.609701 198.235352,126.490397 198.864258,127.148926 C199.493164,127.807454 200.308919,128.136719 201.311523,128.136719 Z M202.931641,123.625 L199.226562,123.625 C199.308594,122.955078 199.522786,122.434408 199.869141,122.062988 C200.215495,121.691569 200.64388,121.505859 201.154297,121.505859 C201.682943,121.505859 202.102214,121.682454 202.412109,122.035645 C202.722005,122.388835 202.895182,122.886719 202.931641,123.529297 L202.931641,123.529297 L202.931641,123.625 Z M209.856445,120.876953 L210.061523,118.429688 L210.061523,117.5 L209.104492,117.5 L209.097656,120.876953 L209.856445,120.876953 Z M211.702148,120.876953 L211.907227,118.429688 L211.907227,117.5 L210.950195,117.5 L210.943359,120.876953 L211.702148,120.876953 Z M217.25293,128 C218.310221,128 219.128255,127.744792 219.707031,127.234375 C220.285807,126.723958 220.575195,126.022135 220.575195,125.128906 C220.575195,124.545573 220.419108,124.043132 220.106934,123.621582 C219.794759,123.200033 219.369792,122.914062 218.832031,122.763672 C219.28776,122.567708 219.647786,122.290853 219.912109,121.933105 C220.176432,121.575358 220.308594,121.164062 220.308594,120.699219 C220.308594,119.824219 220.036296,119.163411 219.491699,118.716797 C218.947103,118.270182 218.134766,118.046875 217.054688,118.046875 L217.054688,118.046875 L213.800781,118.046875 L213.800781,128 L217.25293,128 Z M217.095703,122.291992 L215.113281,122.291992 L215.113281,119.126953 L217.054688,119.126953 C217.70638,119.126953 218.191732,119.251139 218.510742,119.499512 C218.829753,119.747884 218.989258,120.145508 218.989258,120.692383 C218.989258,121.18457 218.81722,121.574219 218.473145,121.861328 C218.129069,122.148438 217.669922,122.291992 217.095703,122.291992 L217.095703,122.291992 Z M217.280273,126.926758 L215.113281,126.926758 L215.113281,123.344727 L217.300781,123.344727 C218.604167,123.344727 219.255859,123.94401 219.255859,125.142578 C219.255859,125.698568 219.079264,126.134928 218.726074,126.45166 C218.372884,126.768392 217.890951,126.926758 217.280273,126.926758 L217.280273,126.926758 Z M223.692383,128 L223.692383,117.5 L222.427734,117.5 L222.427734,128 L223.692383,128 Z M228.750977,128.136719 C229.416341,128.136719 230.005371,127.977214 230.518066,127.658203 C231.030762,127.339193 231.424967,126.893717 231.700684,126.321777 C231.9764,125.749837 232.114258,125.103841 232.114258,124.383789 L232.114258,124.383789 L232.114258,124.294922 C232.114258,123.13737 231.803223,122.209961 231.181152,121.512695 C230.559082,120.81543 229.744466,120.466797 228.737305,120.466797 C228.085612,120.466797 227.505697,120.624023 226.997559,120.938477 C226.489421,121.25293 226.092936,121.699544 225.808105,122.27832 C225.523275,122.857096 225.380859,123.508789 225.380859,124.233398 L225.380859,124.233398 L225.380859,124.322266 C225.380859,125.470703 225.691895,126.393555 226.313965,127.09082 C226.936035,127.788086 227.748372,128.136719 228.750977,128.136719 Z M228.750977,127.104492 C228.112956,127.104492 227.603678,126.85612 227.223145,126.359375 C226.842611,125.86263 226.652344,125.204102 226.652344,124.383789 C226.652344,123.458659 226.84375,122.747721 227.226562,122.250977 C227.609375,121.754232 228.112956,121.505859 228.737305,121.505859 C229.375326,121.505859 229.886882,121.75765 230.271973,122.26123 C230.657064,122.764811 230.849609,123.422201 230.849609,124.233398 C230.849609,125.140299 230.660482,125.84554 230.282227,126.349121 C229.903971,126.852702 229.393555,127.104492 228.750977,127.104492 Z M236.666992,128.136719 C237.168294,128.136719 237.643392,128.022786 238.092285,127.794922 C238.541178,127.567057 238.900065,127.261719 239.168945,126.878906 C239.437826,126.496094 239.583659,126.092773 239.606445,125.668945 L239.606445,125.668945 L238.410156,125.668945 C238.373698,126.079102 238.186849,126.420898 237.849609,126.694336 C237.51237,126.967773 237.118164,127.104492 236.666992,127.104492 C236.015299,127.104492 235.513997,126.874349 235.163086,126.414062 C234.812174,125.953776 234.636719,125.297526 234.636719,124.445312 L234.636719,124.445312 L234.636719,124.206055 C234.636719,123.331055 234.813314,122.662272 235.166504,122.199707 C235.519694,121.737142 236.017578,121.505859 236.660156,121.505859 C237.138672,121.505859 237.540853,121.659668 237.866699,121.967285 C238.192546,122.274902 238.373698,122.667969 238.410156,123.146484 L238.410156,123.146484 L239.606445,123.146484 C239.569987,122.353516 239.277181,121.708659 238.728027,121.211914 C238.178874,120.715169 237.489583,120.466797 236.660156,120.466797 C235.985677,120.466797 235.401204,120.621745 234.906738,120.931641 C234.412272,121.241536 234.032878,121.676758 233.768555,122.237305 C233.504232,122.797852 233.37207,123.438151 233.37207,124.158203 L233.37207,124.158203 L233.37207,124.370117 C233.37207,125.536784 233.669434,126.456217 234.26416,127.128418 C234.858887,127.800618 235.659831,128.136719 236.666992,128.136719 Z M242.299805,128 L242.299805,125.402344 L243.092773,124.575195 L245.669922,128 L247.15332,128 L243.94043,123.693359 L246.818359,120.603516 L245.280273,120.603516 L242.976562,123.037109 L242.299805,123.850586 L242.299805,117.5 L241.035156,117.5 L241.035156,128 L242.299805,128 Z M250.844727,128.136719 C251.687826,128.136719 252.373698,127.937337 252.902344,127.538574 C253.43099,127.139811 253.695312,126.610026 253.695312,125.949219 C253.695312,125.552734 253.600749,125.216634 253.411621,124.940918 C253.222493,124.665202 252.931966,124.429362 252.540039,124.233398 C252.148112,124.037435 251.636556,123.868815 251.005371,123.727539 C250.374186,123.586263 249.937826,123.438151 249.696289,123.283203 C249.454753,123.128255 249.333984,122.898112 249.333984,122.592773 C249.333984,122.269206 249.463867,122.007161 249.723633,121.806641 C249.983398,121.60612 250.343424,121.505859 250.803711,121.505859 C251.250326,121.505859 251.620605,121.631185 251.914551,121.881836 C252.208496,122.132487 252.355469,122.43099 252.355469,122.777344 L252.355469,122.777344 L253.626953,122.777344 C253.626953,122.102865 253.366048,121.549154 252.844238,121.116211 C252.322428,120.683268 251.642253,120.466797 250.803711,120.466797 C250.006185,120.466797 249.351074,120.676432 248.838379,121.095703 C248.325684,121.514974 248.069336,122.027669 248.069336,122.633789 C248.069336,122.998372 248.159342,123.312826 248.339355,123.577148 C248.519368,123.841471 248.797363,124.069336 249.17334,124.260742 C249.549316,124.452148 250.057454,124.616211 250.697754,124.75293 C251.338053,124.889648 251.786947,125.052572 252.044434,125.241699 C252.301921,125.430827 252.430664,125.696289 252.430664,126.038086 C252.430664,126.361654 252.28597,126.62028 251.996582,126.813965 C251.707194,127.00765 251.323242,127.104492 250.844727,127.104492 C250.325195,127.104492 249.907064,126.980306 249.590332,126.731934 C249.2736,126.483561 249.103841,126.147461 249.081055,125.723633 L249.081055,125.723633 L247.816406,125.723633 C247.816406,126.161133 247.94515,126.567871 248.202637,126.943848 C248.460124,127.319824 248.816732,127.61263 249.272461,127.822266 C249.72819,128.031901 250.252279,128.136719 250.844727,128.136719 Z M256.074219,120.876953 L256.279297,118.429688 L256.279297,117.5 L255.322266,117.5 L255.31543,120.876953 L256.074219,120.876953 Z M257.919922,120.876953 L258.125,118.429688 L258.125,117.5 L257.167969,117.5 L257.161133,120.876953 L257.919922,120.876953 Z M264.550781,130.84375 L264.550781,127.282227 C265.065755,127.851888 265.772135,128.136719 266.669922,128.136719 C267.549479,128.136719 268.246745,127.792643 268.761719,127.104492 C269.276693,126.416341 269.53418,125.50944 269.53418,124.383789 L269.53418,124.383789 L269.53418,124.267578 C269.53418,123.073568 269.275553,122.141602 268.758301,121.47168 C268.241048,120.801758 267.538086,120.466797 266.649414,120.466797 C265.733398,120.466797 265.017904,120.785807 264.50293,121.423828 L264.50293,121.423828 L264.441406,120.603516 L263.286133,120.603516 L263.286133,130.84375 L264.550781,130.84375 Z M266.287109,127.104492 C265.507812,127.104492 264.929036,126.767253 264.550781,126.092773 L264.550781,126.092773 L264.550781,122.558594 C264.933594,121.879557 265.507812,121.540039 266.273438,121.540039 C266.893229,121.540039 267.380859,121.781576 267.736328,122.264648 C268.091797,122.747721 268.269531,123.40625 268.269531,124.240234 C268.269531,125.188151 268.090658,125.902507 267.73291,126.383301 C267.375163,126.864095 266.893229,127.104492 266.287109,127.104492 Z M273.423828,128.136719 C274.239583,128.136719 274.941406,127.83138 275.529297,127.220703 C275.57487,127.594401 275.634115,127.854167 275.707031,128 L275.707031,128 L277.033203,128 L277.033203,127.890625 C276.860026,127.489583 276.773438,126.949544 276.773438,126.270508 L276.773438,126.270508 L276.773438,122.866211 C276.755208,122.118815 276.504557,121.532064 276.021484,121.105957 C275.538411,120.67985 274.870768,120.466797 274.018555,120.466797 C273.480794,120.466797 272.987467,120.567057 272.538574,120.767578 C272.089681,120.968099 271.734212,121.240397 271.472168,121.584473 C271.210124,121.928548 271.079102,122.285156 271.079102,122.654297 L271.079102,122.654297 L272.350586,122.654297 C272.350586,122.330729 272.503255,122.055013 272.808594,121.827148 C273.113932,121.599284 273.492188,121.485352 273.943359,121.485352 C274.458333,121.485352 274.847982,121.616374 275.112305,121.878418 C275.376628,122.140462 275.508789,122.492513 275.508789,122.93457 L275.508789,122.93457 L275.508789,123.515625 L274.27832,123.515625 C273.216471,123.515625 272.392741,123.728678 271.807129,124.154785 C271.221517,124.580892 270.928711,125.179036 270.928711,125.949219 C270.928711,126.582682 271.162272,127.105632 271.629395,127.518066 C272.096517,127.930501 272.694661,128.136719 273.423828,128.136719 Z M273.608398,127.036133 C273.193685,127.036133 272.854167,126.924479 272.589844,126.701172 C272.325521,126.477865 272.193359,126.167969 272.193359,125.771484 C272.193359,124.864583 272.968099,124.411133 274.517578,124.411133 L274.517578,124.411133 L275.508789,124.411133 L275.508789,125.928711 C275.349284,126.256836 275.091797,126.523438 274.736328,126.728516 C274.380859,126.933594 274.004883,127.036133 273.608398,127.036133 Z M280.020508,128 L280.020508,122.729492 C280.193685,122.374023 280.435221,122.086914 280.745117,121.868164 C281.055013,121.649414 281.415039,121.540039 281.825195,121.540039 C282.331055,121.540039 282.703613,121.667643 282.942871,121.922852 C283.182129,122.17806 283.304036,122.572266 283.308594,123.105469 L283.308594,123.105469 L283.308594,128 L284.573242,128 L284.573242,123.112305 C284.55957,121.348633 283.771159,120.466797 282.208008,120.466797 C281.296549,120.466797 280.558268,120.822266 279.993164,121.533203 L279.993164,121.533203 L279.952148,120.603516 L278.755859,120.603516 L278.755859,128 L280.020508,128 Z M289.549805,128.136719 C290.789388,128.136719 291.719076,127.660482 292.338867,126.708008 L292.338867,126.708008 L291.566406,126.106445 C291.333984,126.407227 291.062826,126.648763 290.75293,126.831055 C290.443034,127.013346 290.064779,127.104492 289.618164,127.104492 C288.989258,127.104492 288.470866,126.880046 288.062988,126.431152 C287.655111,125.982259 287.442057,125.393229 287.423828,124.664062 L287.423828,124.664062 L292.43457,124.664062 L292.43457,124.137695 C292.43457,122.957357 292.167969,122.050456 291.634766,121.416992 C291.101562,120.783529 290.354167,120.466797 289.392578,120.466797 C288.804688,120.466797 288.258952,120.62972 287.755371,120.955566 C287.25179,121.281413 286.859863,121.732585 286.57959,122.309082 C286.299316,122.885579 286.15918,123.54069 286.15918,124.274414 L286.15918,124.274414 L286.15918,124.506836 C286.15918,125.609701 286.473633,126.490397 287.102539,127.148926 C287.731445,127.807454 288.547201,128.136719 289.549805,128.136719 Z M291.169922,123.625 L287.464844,123.625 C287.546875,122.955078 287.761068,122.434408 288.107422,122.062988 C288.453776,121.691569 288.882161,121.505859 289.392578,121.505859 C289.921224,121.505859 290.340495,121.682454 290.650391,122.035645 C290.960286,122.388835 291.133464,122.886719 291.169922,123.529297 L291.169922,123.529297 L291.169922,123.625 Z M295.271484,128 L295.271484,117.5 L294.006836,117.5 L294.006836,128 L295.271484,128 Z M303.795898,128.136719 C304.461263,128.136719 305.050293,127.977214 305.562988,127.658203 C306.075684,127.339193 306.469889,126.893717 306.745605,126.321777 C307.021322,125.749837 307.15918,125.103841 307.15918,124.383789 L307.15918,124.383789 L307.15918,124.294922 C307.15918,123.13737 306.848145,122.209961 306.226074,121.512695 C305.604004,120.81543 304.789388,120.466797 303.782227,120.466797 C303.130534,120.466797 302.550618,120.624023 302.04248,120.938477 C301.534342,121.25293 301.137858,121.699544 300.853027,122.27832 C300.568197,122.857096 300.425781,123.508789 300.425781,124.233398 L300.425781,124.233398 L300.425781,124.322266 C300.425781,125.470703 300.736816,126.393555 301.358887,127.09082 C301.980957,127.788086 302.793294,128.136719 303.795898,128.136719 Z M303.795898,127.104492 C303.157878,127.104492 302.6486,126.85612 302.268066,126.359375 C301.887533,125.86263 301.697266,125.204102 301.697266,124.383789 C301.697266,123.458659 301.888672,122.747721 302.271484,122.250977 C302.654297,121.754232 303.157878,121.505859 303.782227,121.505859 C304.420247,121.505859 304.931803,121.75765 305.316895,122.26123 C305.701986,122.764811 305.894531,123.422201 305.894531,124.233398 C305.894531,125.140299 305.705404,125.84554 305.327148,126.349121 C304.948893,126.852702 304.438477,127.104492 303.795898,127.104492 Z M310.009766,128 L310.009766,122.729492 C310.182943,122.374023 310.424479,122.086914 310.734375,121.868164 C311.044271,121.649414 311.404297,121.540039 311.814453,121.540039 C312.320312,121.540039 312.692871,121.667643 312.932129,121.922852 C313.171387,122.17806 313.293294,122.572266 313.297852,123.105469 L313.297852,123.105469 L313.297852,128 L314.5625,128 L314.5625,123.112305 C314.548828,121.348633 313.760417,120.466797 312.197266,120.466797 C311.285807,120.466797 310.547526,120.822266 309.982422,121.533203 L309.982422,121.533203 L309.941406,120.603516 L308.745117,120.603516 L308.745117,128 L310.009766,128 Z M322.095703,128.136719 C322.410156,128.136719 322.733724,128.091146 323.066406,128 L323.066406,128 L323.066406,126.974609 C322.811198,127.029297 322.610677,127.056641 322.464844,127.056641 C322.16862,127.056641 321.958984,126.982585 321.835938,126.834473 C321.712891,126.686361 321.651367,126.464193 321.651367,126.167969 L321.651367,126.167969 L321.651367,121.581055 L323.032227,121.581055 L323.032227,120.603516 L321.651367,120.603516 L321.651367,118.8125 L320.386719,118.8125 L320.386719,120.603516 L319.040039,120.603516 L319.040039,121.581055 L320.386719,121.581055 L320.386719,126.167969 C320.386719,126.796875 320.530273,127.282227 320.817383,127.624023 C321.104492,127.96582 321.530599,128.136719 322.095703,128.136719 Z M325.773438,128 L325.773438,122.729492 C325.946615,122.374023 326.188151,122.086914 326.498047,121.868164 C326.807943,121.649414 327.167969,121.540039 327.578125,121.540039 C328.083984,121.540039 328.456543,121.667643 328.695801,121.922852 C328.935059,122.17806 329.056966,122.572266 329.061523,123.105469 L329.061523,123.105469 L329.061523,128 L330.326172,128 L330.326172,123.112305 C330.3125,121.348633 329.524089,120.466797 327.960938,120.466797 C327.063151,120.466797 326.333984,120.810872 325.773438,121.499023 L325.773438,121.499023 L325.773438,117.5 L324.508789,117.5 L324.508789,128 L325.773438,128 Z M335.289062,128.136719 C336.528646,128.136719 337.458333,127.660482 338.078125,126.708008 L338.078125,126.708008 L337.305664,126.106445 C337.073242,126.407227 336.802083,126.648763 336.492188,126.831055 C336.182292,127.013346 335.804036,127.104492 335.357422,127.104492 C334.728516,127.104492 334.210124,126.880046 333.802246,126.431152 C333.394368,125.982259 333.181315,125.393229 333.163086,124.664062 L333.163086,124.664062 L338.173828,124.664062 L338.173828,124.137695 C338.173828,122.957357 337.907227,122.050456 337.374023,121.416992 C336.84082,120.783529 336.093424,120.466797 335.131836,120.466797 C334.543945,120.466797 333.99821,120.62972 333.494629,120.955566 C332.991048,121.281413 332.599121,121.732585 332.318848,122.309082 C332.038574,122.885579 331.898438,123.54069 331.898438,124.274414 L331.898438,124.274414 L331.898438,124.506836 C331.898438,125.609701 332.212891,126.490397 332.841797,127.148926 C333.470703,127.807454 334.286458,128.136719 335.289062,128.136719 Z M336.90918,123.625 L333.204102,123.625 C333.286133,122.955078 333.500326,122.434408 333.84668,122.062988 C334.193034,121.691569 334.621419,121.505859 335.131836,121.505859 C335.660482,121.505859 336.079753,121.682454 336.389648,122.035645 C336.699544,122.388835 336.872721,122.886719 336.90918,123.529297 L336.90918,123.529297 L336.90918,123.625 Z M344.476562,128 L344.476562,117.5 L343.211914,117.5 L343.211914,128 L344.476562,128 Z M349.569336,128.136719 C350.808919,128.136719 351.738607,127.660482 352.358398,126.708008 L352.358398,126.708008 L351.585938,126.106445 C351.353516,126.407227 351.082357,126.648763 350.772461,126.831055 C350.462565,127.013346 350.08431,127.104492 349.637695,127.104492 C349.008789,127.104492 348.490397,126.880046 348.08252,126.431152 C347.674642,125.982259 347.461589,125.393229 347.443359,124.664062 L347.443359,124.664062 L352.454102,124.664062 L352.454102,124.137695 C352.454102,122.957357 352.1875,122.050456 351.654297,121.416992 C351.121094,120.783529 350.373698,120.466797 349.412109,120.466797 C348.824219,120.466797 348.278483,120.62972 347.774902,120.955566 C347.271322,121.281413 346.879395,121.732585 346.599121,122.309082 C346.318848,122.885579 346.178711,123.54069 346.178711,124.274414 L346.178711,124.274414 L346.178711,124.506836 C346.178711,125.609701 346.493164,126.490397 347.12207,127.148926 C347.750977,127.807454 348.566732,128.136719 349.569336,128.136719 Z M351.189453,123.625 L347.484375,123.625 C347.566406,122.955078 347.780599,122.434408 348.126953,122.062988 C348.473307,121.691569 348.901693,121.505859 349.412109,121.505859 C349.940755,121.505859 350.360026,121.682454 350.669922,122.035645 C350.979818,122.388835 351.152995,122.886719 351.189453,123.529297 L351.189453,123.529297 L351.189453,123.625 Z M355.803711,128 L355.803711,121.581055 L357.382812,121.581055 L357.382812,120.603516 L355.803711,120.603516 L355.803711,119.824219 C355.803711,119.377604 355.915365,119.034668 356.138672,118.79541 C356.361979,118.556152 356.678711,118.436523 357.088867,118.436523 C357.330404,118.436523 357.558268,118.457031 357.772461,118.498047 L357.772461,118.498047 L357.84082,117.472656 C357.553711,117.395182 357.264323,117.356445 356.972656,117.356445 C356.197917,117.356445 355.598633,117.572917 355.174805,118.005859 C354.750977,118.438802 354.539062,119.051758 354.539062,119.844727 L354.539062,119.844727 L354.539062,120.603516 L353.370117,120.603516 L353.370117,121.581055 L354.539062,121.581055 L354.539062,128 L355.803711,128 Z M360.9375,128.136719 C361.251953,128.136719 361.575521,128.091146 361.908203,128 L361.908203,128 L361.908203,126.974609 C361.652995,127.029297 361.452474,127.056641 361.306641,127.056641 C361.010417,127.056641 360.800781,126.982585 360.677734,126.834473 C360.554688,126.686361 360.493164,126.464193 360.493164,126.167969 L360.493164,126.167969 L360.493164,121.581055 L361.874023,121.581055 L361.874023,120.603516 L360.493164,120.603516 L360.493164,118.8125 L359.228516,118.8125 L359.228516,120.603516 L357.881836,120.603516 L357.881836,121.581055 L359.228516,121.581055 L359.228516,126.167969 C359.228516,126.796875 359.37207,127.282227 359.65918,127.624023 C359.946289,127.96582 360.372396,128.136719 360.9375,128.136719 Z M364.157227,128.075195 C364.416992,128.075195 364.614095,128.004557 364.748535,127.863281 C364.882975,127.722005 364.950195,127.546549 364.950195,127.336914 C364.950195,127.118164 364.882975,126.935872 364.748535,126.790039 C364.614095,126.644206 364.416992,126.571289 364.157227,126.571289 C363.897461,126.571289 363.702637,126.644206 363.572754,126.790039 C363.442871,126.935872 363.37793,127.118164 363.37793,127.336914 C363.37793,127.546549 363.442871,127.722005 363.572754,127.863281 C363.702637,128.004557 363.897461,128.075195 364.157227,128.075195 Z" id="Dragtheblockyouwantfromthe&quot;Blocks&quot;panelontheleft." fill="#929FB7" fill-rule="nonzero"></path>
                <path d="M93.3208008,96 L93.3208008,92.3359375 L96.6567383,86.046875 L94.7426758,86.046875 L92.4526367,90.7636719 L90.1625977,86.046875 L88.2416992,86.046875 L91.5844727,92.3359375 L91.5844727,96 L93.3208008,96 Z M100.710449,96.1367188 C101.394043,96.1367188 101.996745,95.9794922 102.518555,95.6650391 C103.040365,95.3505859 103.441406,94.90625 103.72168,94.3320312 C104.001953,93.7578125 104.14209,93.1061198 104.14209,92.3769531 L104.14209,92.3769531 L104.135254,91.9873047 C104.085124,90.9254557 103.749023,90.0732422 103.126953,89.4306641 C102.504883,88.7880859 101.694824,88.4667969 100.696777,88.4667969 C100.022298,88.4667969 99.425293,88.6228841 98.9057617,88.9350586 C98.3862305,89.2472331 97.9829102,89.6938477 97.6958008,90.2749023 C97.4086914,90.855957 97.2651367,91.5087891 97.2651367,92.2333984 L97.2651367,92.2333984 L97.2651367,92.3154297 C97.2651367,93.4729818 97.5784505,94.3992513 98.2050781,95.0942383 C98.8317057,95.7892253 99.6668294,96.1367188 100.710449,96.1367188 Z M100.710449,94.8105469 C100.149902,94.8105469 99.7124023,94.5952148 99.3979492,94.1645508 C99.0834961,93.7338867 98.9262695,93.1380208 98.9262695,92.3769531 C98.9262695,91.5201823 99.0857747,90.8764648 99.4047852,90.4458008 C99.7237956,90.0151367 100.15446,89.7998047 100.696777,89.7998047 C101.24821,89.7998047 101.68457,90.0185547 102.005859,90.4560547 C102.327148,90.8935547 102.487793,91.4860026 102.487793,92.2333984 C102.487793,93.0764974 102.331706,93.7167969 102.019531,94.1542969 C101.707357,94.5917969 101.270996,94.8105469 100.710449,94.8105469 Z M107.949707,96.1367188 C108.847493,96.1367188 109.540202,95.8496094 110.027832,95.2753906 L110.027832,95.2753906 L110.068848,96 L111.634277,96 L111.634277,88.6035156 L109.973145,88.6035156 L109.973145,93.9150391 C109.690592,94.4938151 109.145996,94.7832031 108.339355,94.7832031 C107.560059,94.7832031 107.17041,94.3138021 107.17041,93.375 L107.17041,93.375 L107.17041,88.6035156 L105.509277,88.6035156 L105.509277,93.3955078 C105.509277,94.2841797 105.715495,94.9632161 106.12793,95.4326172 C106.540365,95.9020182 107.147624,96.1367188 107.949707,96.1367188 Z M119.406738,96.1367188 C120.236165,96.1367188 120.899251,95.8359375 121.395996,95.234375 L121.395996,95.234375 L121.478027,96 L122.981934,96 L122.981934,85.5 L121.320801,85.5 L121.320801,89.2871094 C120.837728,88.7402344 120.204264,88.4667969 119.42041,88.4667969 C118.531738,88.4667969 117.823079,88.8120117 117.294434,89.5024414 C116.765788,90.1928711 116.501465,91.1077474 116.501465,92.2470703 C116.501465,93.445638 116.769206,94.3935547 117.304688,95.0908203 C117.840169,95.7880859 118.540853,96.1367188 119.406738,96.1367188 Z M119.830566,94.7832031 C119.297363,94.7832031 118.886068,94.5724284 118.59668,94.1508789 C118.307292,93.7293294 118.162598,93.1425781 118.162598,92.390625 C118.162598,91.5338542 118.308431,90.8924154 118.600098,90.4663086 C118.891764,90.0402018 119.306478,89.8271484 119.844238,89.8271484 C120.523275,89.8271484 121.015462,90.1233724 121.320801,90.7158203 L121.320801,90.7158203 L121.320801,93.8740234 C121.006348,94.4801432 120.509603,94.7832031 119.830566,94.7832031 Z M127.849121,96.1367188 C128.532715,96.1367188 129.135417,95.9794922 129.657227,95.6650391 C130.179036,95.3505859 130.580078,94.90625 130.860352,94.3320312 C131.140625,93.7578125 131.280762,93.1061198 131.280762,92.3769531 L131.280762,92.3769531 L131.273926,91.9873047 C131.223796,90.9254557 130.887695,90.0732422 130.265625,89.4306641 C129.643555,88.7880859 128.833496,88.4667969 127.835449,88.4667969 C127.16097,88.4667969 126.563965,88.6228841 126.044434,88.9350586 C125.524902,89.2472331 125.121582,89.6938477 124.834473,90.2749023 C124.547363,90.855957 124.403809,91.5087891 124.403809,92.2333984 L124.403809,92.2333984 L124.403809,92.3154297 C124.403809,93.4729818 124.717122,94.3992513 125.34375,95.0942383 C125.970378,95.7892253 126.805501,96.1367188 127.849121,96.1367188 Z M127.849121,94.8105469 C127.288574,94.8105469 126.851074,94.5952148 126.536621,94.1645508 C126.222168,93.7338867 126.064941,93.1380208 126.064941,92.3769531 C126.064941,91.5201823 126.224447,90.8764648 126.543457,90.4458008 C126.862467,90.0151367 127.293132,89.7998047 127.835449,89.7998047 C128.386882,89.7998047 128.823242,90.0185547 129.144531,90.4560547 C129.46582,90.8935547 129.626465,91.4860026 129.626465,92.2333984 C129.626465,93.0764974 129.470378,93.7167969 129.158203,94.1542969 C128.846029,94.5917969 128.409668,94.8105469 127.849121,94.8105469 Z M134.322754,96 L134.322754,90.7363281 C134.650879,90.1302083 135.149902,89.8271484 135.819824,89.8271484 C136.280111,89.8271484 136.611654,89.9399414 136.814453,90.1655273 C137.017253,90.3911133 137.118652,90.7386068 137.118652,91.2080078 L137.118652,91.2080078 L137.118652,96 L138.779785,96 L138.779785,91.1123047 C138.752441,89.3486328 137.968587,88.4667969 136.428223,88.4667969 C135.539551,88.4667969 134.821777,88.7972005 134.274902,89.4580078 L134.274902,89.4580078 L134.227051,88.6035156 L132.661621,88.6035156 L132.661621,96 L134.322754,96 Z M141.268066,89.0273438 L141.445801,86.3544922 L141.445801,85.5 L140.181152,85.5 L140.181152,89.0273438 L141.268066,89.0273438 Z M145.171387,96.1367188 C145.522298,96.1367188 145.886882,96.0843099 146.265137,95.9794922 L146.265137,95.9794922 L146.265137,94.6943359 C146.069173,94.7399089 145.875488,94.7626953 145.684082,94.7626953 C145.396973,94.7626953 145.197591,94.7000326 145.085938,94.574707 C144.974284,94.4493815 144.918457,94.2454427 144.918457,93.9628906 L144.918457,93.9628906 L144.918457,89.8339844 L146.224121,89.8339844 L146.224121,88.6035156 L144.918457,88.6035156 L144.918457,86.8056641 L143.257324,86.8056641 L143.257324,88.6035156 L142.040527,88.6035156 L142.040527,89.8339844 L143.257324,89.8339844 L143.257324,94.0244141 C143.257324,95.4326172 143.895345,96.1367188 145.171387,96.1367188 Z M152.615723,96 L152.615723,90.7158203 C152.943848,90.1233724 153.440592,89.8271484 154.105957,89.8271484 C154.534342,89.8271484 154.859049,89.9331055 155.080078,90.1450195 C155.301107,90.3569336 155.411621,90.718099 155.411621,91.2285156 L155.411621,91.2285156 L155.411621,96 L157.072754,96 L157.072754,91.1669922 C157.049967,89.366862 156.250163,88.4667969 154.67334,88.4667969 C153.843913,88.4667969 153.15804,88.78125 152.615723,89.4101562 L152.615723,89.4101562 L152.615723,85.5 L150.95459,85.5 L150.95459,96 L152.615723,96 Z M161.037598,96.1367188 C161.803223,96.1367188 162.450358,95.8610026 162.979004,95.3095703 C163.033691,95.6285807 163.097493,95.858724 163.17041,96 L163.17041,96 L164.865723,96 L164.865723,95.8837891 C164.678874,95.4873047 164.585449,94.9563802 164.585449,94.2910156 L164.585449,94.2910156 L164.585449,90.9550781 C164.571777,90.1666667 164.307454,89.5548503 163.79248,89.1196289 C163.277507,88.6844076 162.587077,88.4667969 161.721191,88.4667969 C161.15153,88.4667969 160.635417,88.5670573 160.172852,88.7675781 C159.710286,88.968099 159.344564,89.2449544 159.075684,89.5981445 C158.806803,89.9513346 158.672363,90.3307292 158.672363,90.7363281 L158.672363,90.7363281 L160.333496,90.7363281 C160.333496,90.4446615 160.454264,90.2042643 160.695801,90.0151367 C160.937337,89.8260091 161.247233,89.7314453 161.625488,89.7314453 C162.062988,89.7314453 162.388835,89.8465169 162.603027,90.0766602 C162.81722,90.3068034 162.924316,90.6132812 162.924316,90.9960938 L162.924316,90.9960938 L162.924316,91.4814453 L161.905762,91.4814453 C160.816569,91.4814453 159.979167,91.6922201 159.393555,92.1137695 C158.807943,92.535319 158.515137,93.1402995 158.515137,93.9287109 C158.515137,94.5530599 158.749837,95.0771484 159.219238,95.5009766 C159.688639,95.9248047 160.294759,96.1367188 161.037598,96.1367188 Z M161.345215,94.8037109 C160.989746,94.8037109 160.706055,94.7091471 160.494141,94.5200195 C160.282227,94.3308919 160.17627,94.0768229 160.17627,93.7578125 C160.17627,93.3658854 160.331217,93.0628255 160.641113,92.8486328 C160.951009,92.6344401 161.413574,92.5273438 162.028809,92.5273438 L162.028809,92.5273438 L162.924316,92.5273438 L162.924316,93.921875 C162.778483,94.1907552 162.560872,94.4049479 162.271484,94.5644531 C161.982096,94.7239583 161.67334,94.8037109 161.345215,94.8037109 Z M169.650879,96 L172.214355,88.6035156 L170.498535,88.6035156 L168.933105,93.8945312 L167.347168,88.6035156 L165.624512,88.6035156 L168.208496,96 L169.650879,96 Z M176.507324,96.1367188 C177.122559,96.1367188 177.677409,96.0148112 178.171875,95.7709961 C178.666341,95.527181 179.061686,95.1842448 179.35791,94.7421875 L179.35791,94.7421875 L178.462402,93.8876953 C177.983887,94.5029297 177.364095,94.8105469 176.603027,94.8105469 C176.06071,94.8105469 175.610677,94.6328125 175.25293,94.2773438 C174.895182,93.921875 174.691243,93.4388021 174.641113,92.828125 L174.641113,92.828125 L179.474121,92.828125 L179.474121,92.1582031 C179.474121,90.9824219 179.199544,90.0732422 178.650391,89.4306641 C178.101237,88.7880859 177.323079,88.4667969 176.315918,88.4667969 C175.682454,88.4667969 175.108236,88.6285807 174.593262,88.9521484 C174.078288,89.2757161 173.678385,89.7280273 173.393555,90.309082 C173.108724,90.8901367 172.966309,91.5498047 172.966309,92.2880859 L172.966309,92.2880859 L172.966309,92.4931641 C172.966309,93.5960286 173.293294,94.4790039 173.947266,95.1420898 C174.601237,95.8051758 175.45459,96.1367188 176.507324,96.1367188 Z M177.833496,91.6113281 L174.668457,91.6113281 C174.745931,91.0416667 174.924805,90.5973307 175.205078,90.2783203 C175.485352,89.9593099 175.853353,89.7998047 176.309082,89.7998047 C176.769368,89.7998047 177.129395,89.9422201 177.38916,90.2270508 C177.648926,90.5118815 177.797038,90.9322917 177.833496,91.4882812 L177.833496,91.4882812 L177.833496,91.6113281 Z M186.535645,96.1367188 C187.30127,96.1367188 187.948405,95.8610026 188.477051,95.3095703 C188.531738,95.6285807 188.59554,95.858724 188.668457,96 L188.668457,96 L190.36377,96 L190.36377,95.8837891 C190.176921,95.4873047 190.083496,94.9563802 190.083496,94.2910156 L190.083496,94.2910156 L190.083496,90.9550781 C190.069824,90.1666667 189.805501,89.5548503 189.290527,89.1196289 C188.775553,88.6844076 188.085124,88.4667969 187.219238,88.4667969 C186.649577,88.4667969 186.133464,88.5670573 185.670898,88.7675781 C185.208333,88.968099 184.842611,89.2449544 184.57373,89.5981445 C184.30485,89.9513346 184.17041,90.3307292 184.17041,90.7363281 L184.17041,90.7363281 L185.831543,90.7363281 C185.831543,90.4446615 185.952311,90.2042643 186.193848,90.0151367 C186.435384,89.8260091 186.74528,89.7314453 187.123535,89.7314453 C187.561035,89.7314453 187.886882,89.8465169 188.101074,90.0766602 C188.315267,90.3068034 188.422363,90.6132812 188.422363,90.9960938 L188.422363,90.9960938 L188.422363,91.4814453 L187.403809,91.4814453 C186.314616,91.4814453 185.477214,91.6922201 184.891602,92.1137695 C184.30599,92.535319 184.013184,93.1402995 184.013184,93.9287109 C184.013184,94.5530599 184.247884,95.0771484 184.717285,95.5009766 C185.186686,95.9248047 185.792806,96.1367188 186.535645,96.1367188 Z M186.843262,94.8037109 C186.487793,94.8037109 186.204102,94.7091471 185.992188,94.5200195 C185.780273,94.3308919 185.674316,94.0768229 185.674316,93.7578125 C185.674316,93.3658854 185.829264,93.0628255 186.13916,92.8486328 C186.449056,92.6344401 186.911621,92.5273438 187.526855,92.5273438 L187.526855,92.5273438 L188.422363,92.5273438 L188.422363,93.921875 C188.27653,94.1907552 188.058919,94.4049479 187.769531,94.5644531 C187.480143,94.7239583 187.171387,94.8037109 186.843262,94.8037109 Z M193.460449,96 L193.460449,90.7363281 C193.788574,90.1302083 194.287598,89.8271484 194.95752,89.8271484 C195.417806,89.8271484 195.749349,89.9399414 195.952148,90.1655273 C196.154948,90.3911133 196.256348,90.7386068 196.256348,91.2080078 L196.256348,91.2080078 L196.256348,96 L197.91748,96 L197.91748,91.1123047 C197.890137,89.3486328 197.106283,88.4667969 195.565918,88.4667969 C194.677246,88.4667969 193.959473,88.7972005 193.412598,89.4580078 L193.412598,89.4580078 L193.364746,88.6035156 L191.799316,88.6035156 L191.799316,96 L193.460449,96 Z M200.234863,98.9873047 C201.314941,98.9873047 202.080566,98.3652344 202.531738,97.1210938 L202.531738,97.1210938 L205.471191,88.6035156 L203.700684,88.6035156 L202.196777,93.6210938 L200.631348,88.6035156 L198.840332,88.6035156 L201.437988,95.9658203 L201.19873,96.6015625 C201.075684,96.9615885 200.908203,97.2179362 200.696289,97.3706055 C200.484375,97.5232747 200.168783,97.5996094 199.749512,97.5996094 L199.749512,97.5996094 L199.435059,97.5791016 L199.435059,98.8642578 C199.726725,98.9462891 199.993327,98.9873047 200.234863,98.9873047 Z M213.51709,96.1367188 C214.414876,96.1367188 215.120117,95.7972005 215.632812,95.1181641 C216.145508,94.4391276 216.401855,93.5253906 216.401855,92.3769531 L216.401855,92.3769531 L216.401855,92.28125 C216.401855,91.078125 216.144368,90.1416016 215.629395,89.4716797 C215.114421,88.8017578 214.405762,88.4667969 213.503418,88.4667969 C212.69222,88.4667969 212.047363,88.749349 211.568848,89.3144531 L211.568848,89.3144531 L211.568848,85.5 L209.907715,85.5 L209.907715,96 L211.411621,96 L211.493652,95.2001953 C211.976725,95.8245443 212.651204,96.1367188 213.51709,96.1367188 Z M213.100098,94.7832031 C212.375488,94.7832031 211.865072,94.4619141 211.568848,93.8193359 L211.568848,93.8193359 L211.568848,90.7705078 C211.860514,90.1416016 212.366374,89.8271484 213.086426,89.8271484 C213.624186,89.8271484 214.034342,90.0276693 214.316895,90.4287109 C214.599447,90.8297526 214.740723,91.4313151 214.740723,92.2333984 L214.740723,92.2333984 L214.740723,92.4453125 C214.731608,93.2291667 214.585775,93.8147786 214.303223,94.2021484 C214.020671,94.5895182 213.619629,94.7832031 213.100098,94.7832031 Z M219.560059,96 L219.560059,85.5 L217.898926,85.5 L217.898926,96 L219.560059,96 Z M224.502441,96.1367188 C225.186035,96.1367188 225.788737,95.9794922 226.310547,95.6650391 C226.832357,95.3505859 227.233398,94.90625 227.513672,94.3320312 C227.793945,93.7578125 227.934082,93.1061198 227.934082,92.3769531 L227.934082,92.3769531 L227.927246,91.9873047 C227.877116,90.9254557 227.541016,90.0732422 226.918945,89.4306641 C226.296875,88.7880859 225.486816,88.4667969 224.48877,88.4667969 C223.81429,88.4667969 223.217285,88.6228841 222.697754,88.9350586 C222.178223,89.2472331 221.774902,89.6938477 221.487793,90.2749023 C221.200684,90.855957 221.057129,91.5087891 221.057129,92.2333984 L221.057129,92.2333984 L221.057129,92.3154297 C221.057129,93.4729818 221.370443,94.3992513 221.99707,95.0942383 C222.623698,95.7892253 223.458822,96.1367188 224.502441,96.1367188 Z M224.502441,94.8105469 C223.941895,94.8105469 223.504395,94.5952148 223.189941,94.1645508 C222.875488,93.7338867 222.718262,93.1380208 222.718262,92.3769531 C222.718262,91.5201823 222.877767,90.8764648 223.196777,90.4458008 C223.515788,90.0151367 223.946452,89.7998047 224.48877,89.7998047 C225.040202,89.7998047 225.476562,90.0185547 225.797852,90.4560547 C226.119141,90.8935547 226.279785,91.4860026 226.279785,92.2333984 C226.279785,93.0764974 226.123698,93.7167969 225.811523,94.1542969 C225.499349,94.5917969 225.062988,94.8105469 224.502441,94.8105469 Z M232.397949,96.1367188 C232.931152,96.1367188 233.427897,96.0205078 233.888184,95.7880859 C234.34847,95.5556641 234.713053,95.2400716 234.981934,94.8413086 C235.250814,94.4425456 235.394368,94.0130208 235.412598,93.5527344 L235.412598,93.5527344 L233.847168,93.5527344 C233.828939,93.9082031 233.683105,94.2067057 233.409668,94.4482422 C233.13623,94.6897786 232.792155,94.8105469 232.377441,94.8105469 C231.830566,94.8105469 231.412435,94.613444 231.123047,94.2192383 C230.833659,93.8250326 230.688965,93.226888 230.688965,92.4248047 L230.688965,92.4248047 L230.688965,92.1582031 C230.693522,91.3652344 230.841634,90.7739258 231.133301,90.3842773 C231.424967,89.9946289 231.839681,89.7998047 232.377441,89.7998047 C232.796712,89.7998047 233.141927,89.9365234 233.413086,90.2099609 C233.684245,90.4833984 233.828939,90.8320312 233.847168,91.2558594 L233.847168,91.2558594 L235.412598,91.2558594 C235.385254,90.421875 235.094727,89.7485352 234.541016,89.2358398 C233.987305,88.7231445 233.270671,88.4667969 232.391113,88.4667969 C231.352051,88.4667969 230.531738,88.8051758 229.930176,89.4819336 C229.328613,90.1586914 229.027832,91.0598958 229.027832,92.1855469 L229.027832,92.1855469 L229.027832,92.3564453 C229.027832,93.5367839 229.330892,94.4619141 229.937012,95.1318359 C230.543132,95.8017578 231.363444,96.1367188 232.397949,96.1367188 Z M238.331543,96 L238.331543,93.5869141 L239.069824,92.828125 L241.26416,96 L243.185059,96 L240.143066,91.6865234 L242.891113,88.6035156 L240.89502,88.6035156 L238.851074,90.9072266 L238.331543,91.5566406 L238.331543,85.5 L236.67041,85.5 L236.67041,96 L238.331543,96 Z M246.760254,96.1367188 C247.653483,96.1367188 248.375814,95.9305013 248.927246,95.5180664 C249.478678,95.1056315 249.754395,94.5667318 249.754395,93.9013672 C249.754395,93.5048828 249.664388,93.1676432 249.484375,92.8896484 C249.304362,92.6116536 249.028646,92.3735352 248.657227,92.175293 C248.285807,91.9770508 247.774251,91.8061523 247.122559,91.6625977 C246.470866,91.519043 246.037923,91.3766276 245.82373,91.2353516 C245.609538,91.0940755 245.502441,90.8958333 245.502441,90.640625 C245.502441,90.3580729 245.617513,90.132487 245.847656,89.9638672 C246.077799,89.7952474 246.375163,89.7109375 246.739746,89.7109375 C247.131673,89.7109375 247.446126,89.8168945 247.683105,90.0288086 C247.920085,90.2407227 248.038574,90.5061849 248.038574,90.8251953 L248.038574,90.8251953 L249.699707,90.8251953 C249.699707,90.1279297 249.427409,89.5605469 248.882812,89.1230469 C248.338216,88.6855469 247.623861,88.4667969 246.739746,88.4667969 C245.910319,88.4667969 245.226725,88.6809896 244.688965,89.109375 C244.151204,89.5377604 243.882324,90.0709635 243.882324,90.7089844 C243.882324,91.4700521 244.297038,92.0511068 245.126465,92.4521484 C245.50472,92.6344401 245.9764,92.7848307 246.541504,92.9033203 C247.106608,93.0218099 247.511068,93.1585286 247.754883,93.3134766 C247.998698,93.4684245 248.120605,93.6940104 248.120605,93.9902344 C248.120605,94.2591146 248.006673,94.4767253 247.778809,94.6430664 C247.550944,94.8094076 247.218262,94.8925781 246.780762,94.8925781 C246.32959,94.8925781 245.967285,94.7866211 245.693848,94.574707 C245.42041,94.362793 245.272298,94.0608724 245.249512,93.6689453 L245.249512,93.6689453 L243.63623,93.6689453 C243.63623,94.1110026 243.768392,94.5234375 244.032715,94.90625 C244.297038,95.2890625 244.666178,95.5898438 245.140137,95.8085938 C245.614095,96.0273438 246.154134,96.1367188 246.760254,96.1367188 Z M255.312012,98.9873047 C256.39209,98.9873047 257.157715,98.3652344 257.608887,97.1210938 L257.608887,97.1210938 L260.54834,88.6035156 L258.777832,88.6035156 L257.273926,93.6210938 L255.708496,88.6035156 L253.91748,88.6035156 L256.515137,95.9658203 L256.275879,96.6015625 C256.152832,96.9615885 255.985352,97.2179362 255.773438,97.3706055 C255.561523,97.5232747 255.245931,97.5996094 254.82666,97.5996094 L254.82666,97.5996094 L254.512207,97.5791016 L254.512207,98.8642578 C254.803874,98.9462891 255.070475,98.9873047 255.312012,98.9873047 Z M264.759277,96.1367188 C265.374512,96.1367188 265.929362,96.0148112 266.423828,95.7709961 C266.918294,95.527181 267.313639,95.1842448 267.609863,94.7421875 L267.609863,94.7421875 L266.714355,93.8876953 C266.23584,94.5029297 265.616048,94.8105469 264.85498,94.8105469 C264.312663,94.8105469 263.86263,94.6328125 263.504883,94.2773438 C263.147135,93.921875 262.943197,93.4388021 262.893066,92.828125 L262.893066,92.828125 L267.726074,92.828125 L267.726074,92.1582031 C267.726074,90.9824219 267.451497,90.0732422 266.902344,89.4306641 C266.35319,88.7880859 265.575033,88.4667969 264.567871,88.4667969 C263.934408,88.4667969 263.360189,88.6285807 262.845215,88.9521484 C262.330241,89.2757161 261.930339,89.7280273 261.645508,90.309082 C261.360677,90.8901367 261.218262,91.5498047 261.218262,92.2880859 L261.218262,92.2880859 L261.218262,92.4931641 C261.218262,93.5960286 261.545247,94.4790039 262.199219,95.1420898 C262.85319,95.8051758 263.706543,96.1367188 264.759277,96.1367188 Z M266.085449,91.6113281 L262.92041,91.6113281 C262.997884,91.0416667 263.176758,90.5973307 263.457031,90.2783203 C263.737305,89.9593099 264.105306,89.7998047 264.561035,89.7998047 C265.021322,89.7998047 265.381348,89.9422201 265.641113,90.2270508 C265.900879,90.5118815 266.048991,90.9322917 266.085449,91.4882812 L266.085449,91.4882812 L266.085449,91.6113281 Z M271.349121,96.1367188 C271.700033,96.1367188 272.064616,96.0843099 272.442871,95.9794922 L272.442871,95.9794922 L272.442871,94.6943359 C272.246908,94.7399089 272.053223,94.7626953 271.861816,94.7626953 C271.574707,94.7626953 271.375326,94.7000326 271.263672,94.574707 C271.152018,94.4493815 271.096191,94.2454427 271.096191,93.9628906 L271.096191,93.9628906 L271.096191,89.8339844 L272.401855,89.8339844 L272.401855,88.6035156 L271.096191,88.6035156 L271.096191,86.8056641 L269.435059,86.8056641 L269.435059,88.6035156 L268.218262,88.6035156 L268.218262,89.8339844 L269.435059,89.8339844 L269.435059,94.0244141 C269.435059,95.4326172 270.073079,96.1367188 271.349121,96.1367188 Z M274.705566,96.0751953 C275.015462,96.0751953 275.25472,95.9897461 275.42334,95.8188477 C275.59196,95.6479492 275.67627,95.4326172 275.67627,95.1728516 C275.67627,94.9085286 275.59196,94.6886393 275.42334,94.5131836 C275.25472,94.3377279 275.015462,94.25 274.705566,94.25 C274.400228,94.25 274.163249,94.3377279 273.994629,94.5131836 C273.826009,94.6886393 273.741699,94.9085286 273.741699,95.1728516 C273.741699,95.4371745 273.828288,95.6536458 274.001465,95.8222656 C274.174642,95.9908854 274.409342,96.0751953 274.705566,96.0751953 Z" id="Youdon'thaveanyblocksyet." fill="#312E55" fill-rule="nonzero"></path>
                <g id="Group-6" transform="translate(105.461426, 0.000000)">
                    <g id="Group-3">
                        <g id="Group-5">
                            <path d="M4,14 L36,14 C38.209139,14 40,15.790861 40,18 L40,50 C40,52.209139 38.209139,54 36,54 L4,54 C1.790861,54 2.705415e-16,52.209139 0,50 L0,18 C-2.705415e-16,15.790861 1.790861,14 4,14 Z" id="Rectangle" fill-opacity="0.5" fill="#3479B7" opacity="0.200000003"></path>
                            <g id="Group-2" transform="translate(32.000000, 22.000000) rotate(-6.000000) translate(-32.000000, -22.000000) translate(12.000000, 2.000000)">
                                <path d="M4,0 L36,0 C38.209139,-4.05812251e-16 40,1.790861 40,4 L40,36 C40,38.209139 38.209139,40 36,40 L4,40 C1.790861,40 2.705415e-16,38.209139 0,36 L0,4 C-2.705415e-16,1.790861 1.790861,4.05812251e-16 4,0 Z" id="Rectangle-Copy-3" fill="#FFFFFF"></path>
                                <path d="M36,0 C38.209139,0 40,1.790861 40,4 L40,36 C40,38.209139 38.209139,40 36,40 L4,40 C1.790861,40 0,38.209139 0,36 L0,4 C0,1.790861 1.790861,0 4,0 L36,0 Z M2,36 C2,37.0543618 2.81587779,37.9181651 3.85073766,37.9945143 L4,38 L36,38 C37.0543618,38 37.9181651,37.1841222 37.9945143,36.1492623 L38,36 L38,27 L28.8629846,31.1531888 C27.6931012,31.684954 26.3389691,31.6222681 25.2232171,30.9846955 L14.7767829,25.0153045 C13.6610309,24.3777319 12.3068988,24.315046 11.1370154,24.8468112 L2,29 L2,36 Z M12,8 C14.209139,8 16,9.790861 16,12 C16,14.209139 14.209139,16 12,16 C9.790861,16 8,14.209139 8,12 C8,9.790861 9.790861,8 12,8 Z M12,10 C10.8954305,10 10,10.8954305 10,12 C10,13.1045695 10.8954305,14 12,14 C13.1045695,14 14,13.1045695 14,12 C14,10.8954305 13.1045695,10 12,10 Z M2,27 L11.1370154,22.8468112 C12.3068988,22.315046 13.6610309,22.3777319 14.7767829,23.0153045 L25.2232171,28.9846955 C26.3389691,29.6222681 27.6931012,29.684954 28.8629846,29.1531888 L38,25 L38,4 C38,2.9456382 37.1841222,2.08183488 36.1492623,2.00548574 L36,2 L4,2 C2.9456382,2 2.08183488,2.81587779 2.00548574,3.85073766 L2,4 L2,27 Z" id="Shape" fill="#3479B7" fill-rule="nonzero" transform="translate(20.000000, 20.000000) rotate(-360.000000) translate(-20.000000, -20.000000) "></path>
                            </g>
                        </g>
                        <g id="Group-4" transform="translate(114.000000, 14.000000)">
                            <path d="M4,0 L36,0 C38.209139,-4.05812251e-16 40,1.790861 40,4 L40,36 C40,38.209139 38.209139,40 36,40 L4,40 C1.790861,40 2.705415e-16,38.209139 0,36 L0,4 C-2.705415e-16,1.790861 1.790861,4.05812251e-16 4,0 Z" id="Rectangle" fill="#E9ECF1"></path>
                            <circle id="Oval" fill="#FFFFFF" cx="12" cy="12" r="4"></circle>
                            <path d="M2,27.5969567 L10.9786552,23.794502 C12.1573096,23.2953426 13.5036642,23.3904035 14.6004874,24.0502256 L24.5937827,30.0619482 C25.8109555,30.7941696 27.3251476,30.8259655 28.5719851,30.1454847 L38,25 L38,25 L38,36 C38,37.1045695 37.1045695,38 36,38 L4,38 C2.8954305,38 2,37.1045695 2,36 L2,27.5969567 L2,27.5969567 Z" id="Rectangle" fill="#FFFFFF"></path>
                        </g>
                    </g>
                    <path d="M60.4506986,17.7791129 C67.5709661,15.1733414 74.6912335,13.8704556 81.811501,13.8704556 C88.9317684,13.8704556 96.0520358,15.1733414 103.172303,17.7791129" id="Path-3" stroke="#D7DCE4" stroke-dasharray="4"></path>
                </g>
            </g>
        </g>
    </g>
</svg>