<svg xmlns="http://www.w3.org/2000/svg" xmlns:xlink="http://www.w3.org/1999/xlink" width="50" height="50" viewBox="0 0 64 64">
  <defs>
    <path id="64-copy-4-a" d="M3.90506557,63.9288567 C1.83182272,63.9189673 0.0834653102,62.1879404 1.13686838e-13,60.0625 L-9.23705556e-14,21 C1.05838585,22.4261707 2.23373478,23.7803322 3.52587497,25.0596641 C9.97277457,31.442659 19.0865907,35.7336953 30.7476755,38.1000118 C40.1261316,40.0031277 46.9595837,43.2205056 51.3676798,47.5849065 C55.5228347,51.6988736 57.7256588,57.0400635 58,64 L3.90506557,63.9288567 Z M60.481502,38.9643659 C54.1274667,32.5972744 44.1449928,28.2436957 32.6520011,25.8832912 C23.4087342,23.9849301 16.6737612,20.7755747 12.3291616,16.4220479 C8.23031782,12.3147819 6.05897046,6.98122673 5.79154914,0.0298194607 L3,0.0153160921 C3.11510835,0.00462813828 3.23197273,-0.000546754158 3.35035659,4.56761848e-05 L60.1476674,0.0117783488 C62.1932522,0.0220151032 63.9180003,1.75030712 64,3.87202662 L64,43.0732422 C62.945613,41.6288417 61.7727208,40.258238 60.481502,38.9643659 Z"/>
  </defs>
  <g fill="none" fill-rule="evenodd">
    <mask id="64-copy-4-b" fill="#fff">
      <use xlink:href="#64-copy-4-a"/>
    </mask>
    <use fill="#FF5C86" xlink:href="#64-copy-4-a"/>
    <polygon fill="#7765D6" points="-4 5.012 37.012 -36 96.409 23.397 70.666 49.14 50.584 34.066 13.097 22.109" mask="url(#64-copy-4-b)"/>
  </g>
</svg>
