<svg xmlns="http://www.w3.org/2000/svg" xmlns:xlink="http://www.w3.org/1999/xlink" width="19" height="19" viewBox="0 0 19 19">
    <defs>
        <path id="b" d="M1143.414 451.414l9.172 9.172a2 2 0 0 1-1.414 3.414H1143a3 3 0 0 1-3-3v-8.172a2 2 0 0 1 3.414-1.414z"/>
        <filter id="a" width="144.8%" height="144.8%" x="-31.2%" y="-7.3%" filterUnits="objectBoundingBox">
            <feOffset dy="1" in="SourceAlpha" result="shadowOffsetOuter1"/>
            <feGaussianBlur in="shadowOffsetOuter1" result="shadowBlurOuter1" stdDeviation="1.5"/>
            <feComposite in="shadowBlurOuter1" in2="SourceAlpha" operator="out" result="shadowBlurOuter1"/>
            <feColorMatrix in="shadowBlurOuter1" values="0 0 0 0 0 0 0 0 0 0 0 0 0 0 0 0 0 0 0.12 0"/>
        </filter>
    </defs>
    <g fill="none" fill-rule="evenodd" transform="translate(-1137 -449)">
        <use fill="#000" filter="url(#a)" xlink:href="#b"/>
        <path fill="#312E55" stroke="#FFF" stroke-linejoin="square" stroke-width="2" d="M1142.707 452.121a1 1 0 0 0-1.707.707V461a2 2 0 0 0 2 2h8.172a1 1 0 0 0 .707-1.707l-9.172-9.172z"/>
    </g>
</svg>
