<svg xmlns="http://www.w3.org/2000/svg" xmlns:xlink="http://www.w3.org/1999/xlink" width="19" height="19" viewBox="0 0 19 19">
    <defs>
        <path id="b" d="M1224.828 368H1233a3 3 0 0 1 3 3v8.172a2 2 0 0 1-3.414 1.414l-9.172-9.172a2 2 0 0 1 1.414-3.414z"/>
        <filter id="a" width="144.8%" height="144.8%" x="-13.6%" y="-25%" filterUnits="objectBoundingBox">
            <feOffset dy="1" in="SourceAlpha" result="shadowOffsetOuter1"/>
            <feGaussianBlur in="shadowOffsetOuter1" result="shadowBlurOuter1" stdDeviation="1.5"/>
            <feComposite in="shadowBlurOuter1" in2="SourceAlpha" operator="out" result="shadowBlurOuter1"/>
            <feColorMatrix in="shadowBlurOuter1" values="0 0 0 0 0 0 0 0 0 0 0 0 0 0 0 0 0 0 0.12 0"/>
        </filter>
    </defs>
    <g fill="none" fill-rule="evenodd" transform="translate(-1220 -366)">
        <use fill="#000" filter="url(#a)" xlink:href="#b"/>
        <path fill="#312E55" stroke="#FFF" stroke-linejoin="square" stroke-width="2" d="M1224.828 369a1 1 0 0 0-.707 1.707l9.172 9.172a1 1 0 0 0 1.707-.707V371a2 2 0 0 0-2-2h-8.172z"/>
    </g>
</svg>
